<svg xmlns="http://www.w3.org/2000/svg" viewBox="0 0 512 512" role="img" aria-labelledby="title desc">
  <title id="title">Patto Civico per Alpignano - Oliva Sindaco</title>
  <desc id="desc">Logo circolare con paesaggio alpino, torre, ponte e slogan della lista civica.</desc>
  <defs>
    <linearGradient id="outerBlue" x1="0%" y1="0%" x2="100%" y2="100%">
      <stop offset="0%" stop-color="#144C94" />
      <stop offset="100%" stop-color="#112753" />
    </linearGradient>
    <linearGradient id="sky" x1="0%" y1="0%" x2="0%" y2="100%">
      <stop offset="0%" stop-color="#81B7FF" />
      <stop offset="100%" stop-color="#D9EEFF" />
    </linearGradient>
    <linearGradient id="mountain" x1="0%" y1="0%" x2="100%" y2="100%">
      <stop offset="0%" stop-color="#7BA6E6" />
      <stop offset="100%" stop-color="#3C5F99" />
    </linearGradient>
    <linearGradient id="hillLeft" x1="0%" y1="0%" x2="100%" y2="100%">
      <stop offset="0%" stop-color="#B8DE45" />
      <stop offset="100%" stop-color="#2D8B53" />
    </linearGradient>
    <linearGradient id="hillRight" x1="0%" y1="0%" x2="100%" y2="100%">
      <stop offset="0%" stop-color="#D5EC4F" />
      <stop offset="100%" stop-color="#4EAE4A" />
    </linearGradient>
    <linearGradient id="river" x1="0%" y1="0%" x2="0%" y2="100%">
      <stop offset="0%" stop-color="#6AB7FF" />
      <stop offset="100%" stop-color="#1D62C8" />
    </linearGradient>
    <linearGradient id="bridge" x1="0%" y1="0%" x2="0%" y2="100%">
      <stop offset="0%" stop-color="#4267A9" />
      <stop offset="100%" stop-color="#243E74" />
    </linearGradient>
    <linearGradient id="tower" x1="0%" y1="0%" x2="100%" y2="100%">
      <stop offset="0%" stop-color="#D59A5E" />
      <stop offset="100%" stop-color="#9C6336" />
    </linearGradient>
    <path id="topArc" d="M 92 256 A 164 164 0 0 1 420 256" />
    <path id="bottomArc" d="M 420 256 A 164 164 0 0 1 92 256" />
    <clipPath id="innerClip">
      <circle cx="256" cy="256" r="168" />
    </clipPath>
  </defs>

  <circle cx="256" cy="256" r="252" fill="#ffffff" />
  <circle cx="256" cy="256" r="236" fill="url(#outerBlue)" />
  <circle cx="256" cy="256" r="198" fill="#ffffff" />

  <g clip-path="url(#innerClip)">
    <rect width="512" height="512" fill="url(#sky)" />

    <path d="M18 220 L120 182 L174 202 L262 132 L346 188 L494 214 L494 270 L18 270 Z" fill="#F5F9FF" opacity="0.95" />
    <path d="M8 244 L128 196 L176 210 L262 142 L344 194 L504 224 L504 292 L8 292 Z" fill="url(#mountain)" />
    <path d="M0 278 C64 248 120 244 174 252 C214 258 248 270 282 270 C330 270 378 244 512 246 L512 344 L0 344 Z" fill="#6C93D4" opacity="0.9" />

    <path d="M-12 338 C38 286 124 286 196 322 C152 334 120 366 112 412 C52 410 6 394 -12 374 Z" fill="url(#hillLeft)" />
    <path d="M524 340 C468 286 386 284 322 320 C366 332 400 366 406 412 C468 408 506 390 524 372 Z" fill="url(#hillRight)" />

    <path d="M186 338 C212 324 240 316 256 316 C272 316 300 324 326 338 C300 356 280 384 272 420 L240 420 C232 384 212 356 186 338 Z" fill="url(#bridge)" />
    <path d="M78 304 C146 292 206 290 256 292 C308 294 366 296 436 304 L418 348 C362 334 312 330 256 330 C202 330 150 334 94 348 Z" fill="url(#bridge)" />
    <path d="M74 302 C144 290 206 288 256 290 C308 292 370 294 438 302" fill="none" stroke="#E9F1FF" stroke-width="6" stroke-linecap="round" />

    <path d="M204 420 C214 374 234 348 256 332 C278 348 298 374 308 420 Z" fill="#133566" />
    <path d="M254 334 C232 350 212 378 202 422 C178 450 158 480 156 520 L356 520 C352 478 332 448 308 422 C298 378 278 350 256 334 Z" fill="url(#river)" />
    <path d="M244 364 C224 384 214 412 210 450 C206 484 186 504 176 520" fill="none" stroke="#EAF6FF" stroke-width="8" stroke-linecap="round" />
    <path d="M266 380 C284 398 292 422 294 454 C296 480 314 500 326 520" fill="none" stroke="#6EC4FF" stroke-width="6" stroke-linecap="round" />

    <g transform="translate(160 118)">
      <rect x="0" y="26" width="58" height="166" rx="3" fill="url(#tower)" />
      <rect x="-2" y="18" width="62" height="16" fill="#8C552F" />
      <rect x="4" y="8" width="50" height="14" fill="#C9874E" />
      <path d="M2 8 H56 L48 -2 H10 Z" fill="#A56B3E" />
      <rect x="8" y="40" width="12" height="28" rx="2" fill="#173261" />
      <rect x="38" y="40" width="12" height="28" rx="2" fill="#173261" />
      <rect x="19" y="128" width="20" height="34" rx="3" fill="#173261" />
      <circle cx="29" cy="100" r="22" fill="#F7F7F0" stroke="#173261" stroke-width="3" />
      <circle cx="29" cy="100" r="2.8" fill="#173261" />
      <path d="M29 100 L41 92" stroke="#173261" stroke-width="3" stroke-linecap="round" />
      <path d="M29 100 L21 110" stroke="#173261" stroke-width="3" stroke-linecap="round" />
      <g stroke="#173261" stroke-width="1.5">
        <path d="M29 82 V88" />
        <path d="M29 112 V118" />
        <path d="M11 100 H17" />
        <path d="M41 100 H47" />
        <path d="M16 87 L20 91" />
        <path d="M38 109 L42 113" />
        <path d="M42 87 L38 91" />
        <path d="M20 109 L16 113" />
      </g>
    </g>

    <path d="M36 206 C44 192 60 190 76 204 C56 204 46 204 36 206 Z" fill="#ffffff" opacity="0.92" />
    <path d="M400 194 C408 180 426 178 444 194 C424 194 412 194 400 194 Z" fill="#ffffff" opacity="0.92" />
  </g>

  <circle cx="256" cy="256" r="168" fill="none" stroke="#ffffff" stroke-width="6" />

  <g>
    <circle cx="256" cy="256" r="236" fill="none" stroke="#ffffff" stroke-width="10" />
    <text font-family="Manrope, Arial, sans-serif" font-weight="800" font-size="34" letter-spacing="1.2" fill="#F0CB38">
      <textPath href="#topArc" startOffset="50%" text-anchor="middle">PATTO CIVICO PER ALPIGNANO</textPath>
    </text>
    <text font-family="Manrope, Arial, sans-serif" font-weight="800" font-size="30" letter-spacing="1.1" fill="#F0CB38">
      <textPath href="#bottomArc" startOffset="50%" text-anchor="middle">E TEMPO DI FARE</textPath>
    </text>
  </g>

  <g transform="translate(190 374)">
    <rect x="0" y="0" width="132" height="74" rx="18" fill="#15468A" stroke="#ffffff" stroke-width="5" />
    <text x="66" y="33" text-anchor="middle" font-family="Manrope, Arial, sans-serif" font-size="33" font-weight="900" fill="#ffffff">OLIVA</text>
    <text x="66" y="60" text-anchor="middle" font-family="Manrope, Arial, sans-serif" font-size="21" font-weight="800" fill="#ffffff">SINDACO</text>
  </g>

  <g fill="#F0CB38">
    <rect x="92" y="414" width="32" height="4" rx="2" transform="rotate(38 108 416)" />
    <rect x="388" y="414" width="32" height="4" rx="2" transform="rotate(-38 404 416)" />
  </g>
</svg>
